<svg width="18" height="18" viewBox="0 0 18 18" fill="none" xmlns="http://www.w3.org/2000/svg">
<path d="M15.749 8.625C15.749 12.1458 12.8948 15 9.37399 15C8.5664 15 7.79389 14.8498 7.08285 14.5759C6.95285 14.5258 6.88785 14.5008 6.83616 14.4889C6.78532 14.4771 6.74852 14.4722 6.69638 14.4703C6.64337 14.4682 6.58522 14.4742 6.46891 14.4863L2.62814 14.8833C2.26196 14.9211 2.07887 14.9401 1.97087 14.8742C1.8768 14.8168 1.81273 14.7209 1.79567 14.6121C1.77609 14.4871 1.86358 14.3252 2.03856 14.0013L3.26531 11.7306C3.36633 11.5436 3.41685 11.4501 3.43973 11.3602C3.46232 11.2714 3.46778 11.2074 3.46056 11.1161C3.45324 11.0236 3.41266 10.9032 3.33151 10.6625C3.11587 10.0227 2.99899 9.3375 2.99899 8.625C2.99899 5.10418 5.85317 2.25 9.37399 2.25C12.8948 2.25 15.749 5.10418 15.749 8.625Z" stroke="#FF540F" stroke-linecap="round" stroke-linejoin="round"/>
</svg>
